 <svg
      xmlns="http://www.w3.org/2000/svg"
      width="194.6"
      height="70.001"
      viewBox="0 0 194.6 70.001"
    >
      <path
        fill="#000"
        fillRule="evenodd"
        stroke="#000"
        strokeLinecap="round"
        strokeWidth="0.945"
        d="M194.6 36.801v3.2l-46.4 19.3v-3.3l42.6-17.6-42.6-17.6v-3.3l46.4 19.3zm-148.2 22.5L0 40.001v-3.2l46.4-19.3v3.3l-42.6 17.6 42.6 17.6v3.3zm25.7 10.7h-6.8v-70h12.5a45.78 45.78 0 017.278.541q3.825.617 6.912 1.938a21.205 21.205 0 014.61 2.671 16.632 16.632 0 016.595 12.113 23.323 23.323 0 01.105 2.237 20.268 20.268 0 01-.942 6.33 16.364 16.364 0 01-5.758 8.02q-6.7 5.15-18.8 5.15h-5.7v31zm42.4 0h-3.4l22.8-70h3.4l-22.8 70zm-36.7-67.6h-5.7v34.2h5.7a28.332 28.332 0 007.075-.804Q96.1 32.893 96.1 19.501a22.851 22.851 0 00-.972-6.974Q91.882 2.401 77.8 2.401z"
        fontSize="12"
        vectorEffect="non-scaling-stroke"
      ></path></svg>